<svg xmlns="http://www.w3.org/2000/svg" version="1.1" xmlns:xlink="http://www.w3.org/1999/xlink" width="1500" height="1500" viewBox="0 0 1500 1500"><rect width="1500" height="1500" x="0" y="0" id="background" stroke="transparent" fill="#ffffff"></rect><svg xml:space="preserve" width="1000" height="1000" data-version="2" data-id="lg_SHP0KlFy6y3uQquedK" viewBox="0 0 571 143" x="250" y="250"><rect width="100%" height="100%" fill="transparent"></rect><rect width="311.269" height="155.799" x="-155.634" y="-77.9" fill="#8c8c8c" paint-order="stroke" rx="19" ry="19" transform="translate(145.745 71.5)scale(.9011)"></rect><rect width="311.269" height="155.799" x="-155.634" y="-77.9" fill="#7f7f7f" paint-order="stroke" rx="19" ry="19" transform="translate(425.255 71.5)scale(.9011)"></rect><path fill="#ffffff" d="M26.55 45.35V44h20.88q10.72 0 15.97 3.09t5.25 11.04q0 8.8-6.39 12.14-5.96 3.05-16.68 3.05h-.57v19.03h8.88v1.35H26.55v-1.35h4.62v-47zm20.38 0h-1.92v26.62h1.49q4.26 0 5.9-2.91 1.63-2.91 1.63-9.44v-3.41q0-6.03-1.53-8.45-1.52-2.41-5.57-2.41m47.99 16.54q-2.62 0-4.61 3.41-1.99 3.41-1.99 8.09v19.03h5.04v1.28H71.21v-1.28h3.91V61.18h-3.91V59.9h17.11v6.82q.92-3.62 3.55-5.58 2.63-1.95 5.97-1.95 3.33 0 5.43 1.88 2.09 1.89 2.09 5.33 0 3.44-1.56 5.29-1.56 1.84-4.79 1.84t-4.76-2.13q-1.53-2.13-.39-5.89h2.56q1.77-3.62-1.5-3.62m28.48 15.12h2.05v-5.46q0-6.75-.74-9.06-.75-2.3-2.88-2.3-1.27 0-2.3.67-1.03.68-1.03 1.85t.42 2.38h1.78q.57 1.49.57 3.58 0 2.1-1.78 3.62-1.77 1.53-4.47 1.53-6.11 0-6.11-5.89 0-8.74 14.84-8.74 8.45 0 11.68 2.88 3.23 2.87 3.23 10.54v14.41q0 3.7 2.06 3.7 2.41 0 2.84-7.32l1.06.07q-.28 6.25-2.34 8.6-2.06 2.34-6.74 2.34-8.52 0-9.8-5.26-.92 2.7-2.77 3.98-1.85 1.28-5.4 1.28-10.5 0-10.5-8.59 0-5.04 4.01-6.93 4.01-1.88 12.32-1.88m-2.84 8.74q0 3.69.39 4.75.39 1.07 1.49 1.07t2.06-1.81q.95-1.81.95-5.01v-6.6h-.49q-4.4 0-4.4 6.46zm53.25-29.54 1.98-1.21q.43-2.2-1.7-2.2-3.05 0-3.05 4.69 0 1.84.49 4.26 5.4 3.62 5.4 9.26 0 5.65-3.91 8.77-3.9 3.13-10.57 3.13-2.77 0-5.76-.57-3.12 1.99-3.12 2.98t4.54.99h7.25q16.11 0 16.11 11.58 0 6.25-4.86 9.9-4.86 3.66-15.16 3.66-17.54 0-17.54-7.6 0-4.12 5.47-5.68l4.26 1.92q-.57 2.06-.57 3.9 0 6.11 9.09 6.11 5.54 0 8.52-2.06 2.98-2.06 2.98-5.11 0-3.05-1.81-4.08-1.81-1.03-7.2-1.03h-6.89q-5.75 0-8.24-1.92-2.48-1.92-2.48-4.72 0-2.81 1.77-4.69 1.78-1.88 6.32-4.65-8.23-2.34-8.23-10.79 0-5.33 3.83-8.59 3.83-3.27 11.5-3.27 4.62 0 7.88 1.78-.42-1.92-.42-3.48 0-3.98 2.13-5.75 2.13-1.78 4.75-1.78 2.63 0 4.23 1.39 1.6 1.38 1.6 3.8 0 2.41-1.28 3.58t-3.09 1.17q-1.81 0-2.98-.96-1.17-.95-1.24-2.73m-15.06 13.28v3.83q0 4.76.82 6.46.82 1.71 2.49 1.71 1.66 0 2.41-1.67.74-1.67.74-6.85v-3.48q0-5.54-.71-7.28-.71-1.74-2.37-1.74-1.67 0-2.52 1.81-.86 1.81-.86 7.21m40.69 7.52h2.06v-5.46q0-6.75-.75-9.06-.75-2.3-2.88-2.3-1.27 0-2.3.67-1.03.68-1.03 1.85t.42 2.38h1.78q.57 1.49.57 3.58 0 2.1-1.78 3.62-1.77 1.53-4.47 1.53-6.11 0-6.11-5.89 0-8.74 14.84-8.74 8.45 0 11.68 2.88 3.23 2.87 3.23 10.54v14.41q0 3.7 2.06 3.7 2.41 0 2.84-7.32l1.07.07q-.29 6.25-2.35 8.6-2.06 2.34-6.74 2.34-8.52 0-9.8-5.26-.92 2.7-2.77 3.98-1.85 1.28-5.4 1.28-10.5 0-10.5-8.59 0-5.04 4.01-6.93 4.01-1.88 12.32-1.88m-2.84 8.74q0 3.69.39 4.75.39 1.07 1.49 1.07t2.06-1.81q.96-1.81.96-5.01v-6.6h-.5q-4.4 0-4.4 6.46zm28.33-2.2V61.18h-3.91V59.9h3.91v-9.16l13.2-3.26V59.9h9.23v1.28h-9.23v23.93q0 3.33.68 4.9.67 1.56 2.8 1.56t3.73-2.13q1.6-2.13 2.09-5.82l1.21.14q-.57 4.9-3.12 7.77-2.56 2.88-8.45 2.88-5.9 0-9.02-2.34-3.12-2.35-3.12-8.52M259.79 55q-3.77 0-5.36-1.91-1.6-1.92-1.6-4.76t1.74-4.69q1.74-1.84 5.29-1.84t5.39 1.67q1.85 1.66 1.85 4.75t-1.78 4.94Q263.55 55 259.79 55m-10.72 6.18V59.9h17.39v32.52h3.98v1.28h-21.09v-1.28h3.9V61.18zM307 92.92q3.55 0 6.29-1.92 2.73-1.92 2.73-5.79t-2.95-5.92q-2.94-2.06-8.38-3.59-5.43-1.53-7.88-2.66-2.45-1.14-4.65-2.98-4.4-3.7-4.4-11.44 0-6.31 4.51-10.86 4.51-4.54 12.32-4.54 3.76 0 7.84 1.1 4.09 1.1 5.08 1.1.99 0 1.77-1.42h.79l.49 14.34h-1.13q-3.41-6.18-7.14-9.9-3.73-3.73-8.09-3.73-4.37 0-6.78 2.02-2.42 2.03-2.42 5.4 0 3.37 2.88 5.18 2.87 1.81 7.06 2.95 4.19 1.13 5.51 1.56 1.31.43 3.26 1.17 1.95.75 3.2 1.56 1.24.82 2.62 2.06 1.39 1.24 2.17 2.74 1.92 3.4 1.92 8.09 0 7.67-4.8 12.32-4.79 4.65-12.6 4.65-4.05 0-9.26-1.07-5.22-1.06-5.79-1.06-1 0-1.92 2.13h-.99l-.71-16.9h1.2q3.13 6.18 7.99 10.79 4.87 4.62 10.26 4.62m20.24-51.19v-1.28h17.11v25.98q1.13-3.26 3.48-5.25 2.34-1.99 7.1-1.99 11 0 11 11.86v21.37h3.98v1.28h-20.1v-1.28h2.92V69.35q0-4.26-.57-5.51-.57-1.24-2.06-1.24-2.27 0-4.01 2.98-1.74 2.98-1.74 7.24v19.6h3.05v1.28h-20.16v-1.28h3.9V41.73zm60.77 35.28h2.06v-5.46q0-6.75-.74-9.06-.75-2.3-2.88-2.3-1.28 0-2.31.67-1.03.68-1.03 1.85t.43 2.38h1.77q.57 1.49.57 3.58 0 2.1-1.77 3.62-1.78 1.53-4.48 1.53-6.1 0-6.1-5.89 0-8.74 14.84-8.74 8.45 0 11.68 2.88 3.23 2.87 3.23 10.54v14.41q0 3.7 2.06 3.7 2.41 0 2.84-7.32l1.06.07q-.28 6.25-2.34 8.6-2.06 2.34-6.75 2.34-8.52 0-9.79-5.26-.93 2.7-2.77 3.98-1.85 1.28-5.4 1.28-10.51 0-10.51-8.59 0-5.04 4.01-6.93 4.02-1.88 12.32-1.88m-2.84 8.74q0 3.69.39 4.75.39 1.07 1.49 1.07t2.06-1.81q.96-1.81.96-5.01v-6.6h-.5q-4.4 0-4.4 6.46zm48.5-23.86q-2.63 0-4.62 3.41-1.99 3.41-1.99 8.09v19.03h5.04v1.28h-22.15v-1.28h3.91V61.18h-3.91V59.9h17.11v6.82q.93-3.62 3.55-5.58 2.63-1.95 5.97-1.95 3.33 0 5.43 1.88 2.09 1.89 2.09 5.33 0 3.44-1.56 5.29-1.56 1.84-4.79 1.84t-4.76-2.13q-1.53-2.13-.39-5.89h2.56q1.77-3.62-1.49-3.62m11.43-.71V59.9h17.11v6.53q2.34-7.24 10.33-7.24t9.69 7.67q2.48-7.67 10.44-7.67 10.43 0 10.43 11.86v21.37h3.98v1.28h-19.67v-1.28h2.49V69.35q0-5.4-.93-6.32-.42-.43-1.13-.43-2.06 0-3.62 2.77t-1.56 7.03v20.02h2.55v1.28h-18.25v-1.28h2.49V69.35q0-5.4-.92-6.32-.43-.43-1.14-.43-1.99 0-3.58 3.02-1.6 3.02-1.6 7.2v19.6h2.55v1.28H445.1v-1.28h3.9V61.18zm80.08 15.83h2.06v-5.46q0-6.75-.74-9.06-.75-2.3-2.88-2.3-1.28 0-2.3.67-1.03.68-1.03 1.85t.42 2.38h1.78q.56 1.49.56 3.58 0 2.1-1.77 3.62-1.78 1.53-4.47 1.53-6.11 0-6.11-5.89 0-8.74 14.84-8.74 8.45 0 11.68 2.88 3.23 2.87 3.23 10.54v14.41q0 3.7 2.06 3.7 2.41 0 2.84-7.32l1.06.07q-.28 6.25-2.34 8.6-2.06 2.34-6.74 2.34-8.52 0-9.8-5.26-.93 2.7-2.77 3.98-1.85 1.28-5.4 1.28-10.51 0-10.51-8.59 0-5.04 4.02-6.93 4.01-1.88 12.31-1.88m-2.84 8.74q0 3.69.4 4.75.39 1.07 1.49 1.07t2.06-1.81q.95-1.81.95-5.01v-6.6h-.49q-4.41 0-4.41 6.46z" paint-order="stroke"></path></svg></svg>