<svg xmlns="http://www.w3.org/2000/svg" version="1.1" xmlns:xlink="http://www.w3.org/1999/xlink" xmlns:svgjs="http://svgjs.dev/svgjs" width="1500" height="1518" viewBox="0 0 1500 1518"><g transform="matrix(1,0,0,1,1.325901639344238,0.6145748987853494)"><svg viewBox="0 0 244 247" data-background-color="#000000" preserveAspectRatio="xMidYMid meet" height="1518" width="1500" xmlns="http://www.w3.org/2000/svg" xmlns:xlink="http://www.w3.org/1999/xlink"><g id="tight-bounds" transform="matrix(1,0,0,1,-0.21567999999999188,-0.09999999999999432)"><svg viewBox="0 0 244.43135999999998 247.2" height="247.2" width="244.43135999999998"><rect width="244.43135999999998" height="247.2" fill="url(#a32ab32f-7dfc-4bd2-8552-f76d49a0eb24)" mask="url(#8cdb89d4-930a-4cdb-b9f8-c58627b061ba)" data-fill-palette-color="tertiary"></rect><g><svg></svg></g><g><svg viewBox="0 0 244.43135999999998 247.2" height="247.2" width="244.43135999999998"><g transform="matrix(1,0,0,1,0,68.60674187694221)"><svg viewBox="0 0 244.43135999999998 109.98651624611558" height="109.98651624611558" width="244.43135999999998"><g><svg viewBox="0 0 244.43135999999998 109.98651624611558" height="109.98651624611558" width="244.43135999999998"><g><svg viewBox="0 0 244.43135999999998 109.98651624611558" height="109.98651624611558" width="244.43135999999998"><g><svg viewBox="0 0 244.43135999999998 109.98651624611558" height="109.98651624611558" width="244.43135999999998"><g id="textblocktransform"><svg viewBox="0 0 244.43135999999998 109.98651624611558" height="109.98651624611558" width="244.43135999999998" id="textblock"><g><svg viewBox="0 0 244.43135999999998 109.98651624611558" height="109.98651624611558" width="244.43135999999998"><g transform="matrix(1,0,0,1,0,0)"><svg width="244.43135999999998" viewBox="2.8 -35.9 80.44 36.2" height="109.98651624611558" data-palette-color="url(#0745c716-89ee-42ac-9148-7b23b9c46763)"></svg></g></svg></g></svg></g></svg></g><g></g></svg></g></svg></g></svg></g><path d="M0 62.607L0 1 244.431 1 244.431 62.607 234.513 62.607 234.513 10.919 9.919 10.919 9.919 62.607 0 62.607M0 184.593L0 246.2 244.431 246.2 244.431 184.593 234.513 184.593 234.513 236.281 9.919 236.281 9.919 184.593 0 184.593" fill="url(#a32ab32f-7dfc-4bd2-8552-f76d49a0eb24)" stroke="transparent" data-fill-palette-color="tertiary"></path></svg></g><defs></defs><mask id="5cc2ba7a-3d91-4c2b-9c45-4bc48ae45a75"><g id="SvgjsG1770"><svg viewBox="0 0 244.43135999999998 247.2" height="247.2" width="244.43135999999998"><g><svg></svg></g><g><svg viewBox="0 0 244.43135999999998 247.2" height="247.2" width="244.43135999999998"><g transform="matrix(1,0,0,1,0,68.60674187694221)"><svg viewBox="0 0 244.43135999999998 109.98651624611558" height="109.98651624611558" width="244.43135999999998"><g><svg viewBox="0 0 244.43135999999998 109.98651624611558" height="109.98651624611558" width="244.43135999999998"><g><svg viewBox="0 0 244.43135999999998 109.98651624611558" height="109.98651624611558" width="244.43135999999998"><g><svg viewBox="0 0 244.43135999999998 109.98651624611558" height="109.98651624611558" width="244.43135999999998"><g id="SvgjsG1769"><svg viewBox="0 0 244.43135999999998 109.98651624611558" height="109.98651624611558" width="244.43135999999998" id="SvgjsSvg1768"><g><svg viewBox="0 0 244.43135999999998 109.98651624611558" height="109.98651624611558" width="244.43135999999998"><g transform="matrix(1,0,0,1,0,0)"><svg width="244.43135999999998" viewBox="2.8 -35.9 80.44 36.2" height="109.98651624611558" data-palette-color="url(#0745c716-89ee-42ac-9148-7b23b9c46763)"><path d="M18.9-6.75L18.9-6.75Q18.9-3.5 16.63-1.6 14.35 0.3 10.4 0.3L10.4 0.3Q5.8 0.3 2.95-1.25L2.95-1.25 2.95-5.1Q6.3-3.1 10.15-3.1L10.15-3.1Q12.45-3.1 13.65-4 14.85-4.9 14.85-6.45L14.85-6.45Q14.85-8.25 13.53-9.25 12.2-10.25 9.1-11.5L9.1-11.5Q6.25-12.6 4.53-14.25 2.8-15.9 2.8-18.7L2.8-18.7Q2.8-21.85 5.18-23.73 7.55-25.6 11.1-25.6L11.1-25.6Q15.05-25.6 17.45-24.5L17.45-24.5 17.45-20.75Q15.15-22.15 11.15-22.15L11.15-22.15Q9.15-22.15 7.98-21.23 6.8-20.3 6.8-18.85L6.8-18.85Q6.8-17.95 7.15-17.28 7.5-16.6 8.53-15.95 9.55-15.3 10.03-15.08 10.5-14.85 12.1-14.15L12.1-14.15Q15.3-12.85 17.1-11.2 18.9-9.55 18.9-6.75ZM44.25-17.35L44.25 0 40.3 0 40.3-16.4Q40.3-19.15 38.87-20.65 37.45-22.15 35.15-22.15L35.15-22.15Q32.35-22.15 30.25-20 28.15-17.85 28.15-13.85L28.15-13.85 28.15 0 24.25 0 24.25-35.35 28.15-35.35 28.15-20.95Q30.4-25.7 36.15-25.7L36.15-25.7Q39.8-25.7 42.02-23.45 44.25-21.2 44.25-17.35L44.25-17.35ZM55.39-25.35L55.39 0 51.45 0 51.45-25.35 55.39-25.35ZM55.24-35.15Q55.99-34.4 55.99-33.3 55.99-32.2 55.24-31.48 54.49-30.75 53.39-30.75 52.3-30.75 51.57-31.48 50.84-32.2 50.84-33.3 50.84-34.4 51.57-35.15 52.3-35.9 53.39-35.9 54.49-35.9 55.24-35.15ZM83.24-25.35L74.19 0 69.34 0 60.49-25.35 64.59-25.35 68.09-14.65 71.79-3.1Q72.24-5.25 75.54-14.65L75.54-14.65 79.14-25.35 83.24-25.35Z" opacity="1" transform="matrix(1,0,0,1,0,0)" fill="white" class="wordmark-text-0" id="SvgjsPath1767"></path></svg></g></svg></g></svg></g></svg></g><g></g></svg></g></svg></g></svg></g><path d="M0 62.607L0 1 244.431 1 244.431 62.607 234.513 62.607 234.513 10.919 9.919 10.919 9.919 62.607 0 62.607M0 184.593L0 246.2 244.431 246.2 244.431 184.593 234.513 184.593 234.513 236.281 9.919 236.281 9.919 184.593 0 184.593" fill="black" stroke="transparent"></path></svg></g><defs><mask></mask></defs></svg><rect width="244.43135999999998" height="247.2" fill="black" stroke="none" visibility="hidden"></rect></g></mask><linearGradient x1="0.054" x2="0.941" y1="0.5" y2="0.5" id="0745c716-89ee-42ac-9148-7b23b9c46763"><stop stop-color="#0f3054" offset="0"></stop><stop stop-color="#3b8dcb" offset="0.498"></stop><stop stop-color="#0f3054" offset="1"></stop></linearGradient><rect width="244.43135999999998" height="247.2" fill="url(#0745c716-89ee-42ac-9148-7b23b9c46763)" mask="url(#5cc2ba7a-3d91-4c2b-9c45-4bc48ae45a75)" data-fill-palette-color="primary"></rect><mask id="8cdb89d4-930a-4cdb-b9f8-c58627b061ba"><g id="SvgjsG1793"><svg viewBox="0 0 244.43135999999998 247.2" height="247.2" width="244.43135999999998"><g><svg></svg></g><g><svg viewBox="0 0 244.43135999999998 247.2" height="247.2" width="244.43135999999998"><g transform="matrix(1,0,0,1,0,68.60674187694221)"><svg viewBox="0 0 244.43135999999998 109.98651624611558" height="109.98651624611558" width="244.43135999999998"><g><svg viewBox="0 0 244.43135999999998 109.98651624611558" height="109.98651624611558" width="244.43135999999998"><g><svg viewBox="0 0 244.43135999999998 109.98651624611558" height="109.98651624611558" width="244.43135999999998"><g><svg viewBox="0 0 244.43135999999998 109.98651624611558" height="109.98651624611558" width="244.43135999999998"><g id="SvgjsG1792"><svg viewBox="0 0 244.43135999999998 109.98651624611558" height="109.98651624611558" width="244.43135999999998" id="SvgjsSvg1791"><g><svg viewBox="0 0 244.43135999999998 109.98651624611558" height="109.98651624611558" width="244.43135999999998"><g transform="matrix(1,0,0,1,0,0)"><svg width="244.43135999999998" viewBox="2.8 -35.9 80.44 36.2" height="109.98651624611558" data-palette-color="url(#0745c716-89ee-42ac-9148-7b23b9c46763)"></svg></g></svg></g></svg></g></svg></g><g></g></svg></g></svg></g></svg></g><path d="M0 62.607L0 1 244.431 1 244.431 62.607 234.513 62.607 234.513 10.919 9.919 10.919 9.919 62.607 0 62.607M0 184.593L0 246.2 244.431 246.2 244.431 184.593 234.513 184.593 234.513 236.281 9.919 236.281 9.919 184.593 0 184.593" fill="white" stroke="transparent"></path></svg></g><defs><mask></mask></defs><mask><g id="SvgjsG1790"><svg viewBox="0 0 244.43135999999998 247.2" height="247.2" width="244.43135999999998"><g><svg></svg></g><g><svg viewBox="0 0 244.43135999999998 247.2" height="247.2" width="244.43135999999998"><g transform="matrix(1,0,0,1,0,68.60674187694221)"><svg viewBox="0 0 244.43135999999998 109.98651624611558" height="109.98651624611558" width="244.43135999999998"><g><svg viewBox="0 0 244.43135999999998 109.98651624611558" height="109.98651624611558" width="244.43135999999998"><g><svg viewBox="0 0 244.43135999999998 109.98651624611558" height="109.98651624611558" width="244.43135999999998"><g><svg viewBox="0 0 244.43135999999998 109.98651624611558" height="109.98651624611558" width="244.43135999999998"><g id="SvgjsG1789"><svg viewBox="0 0 244.43135999999998 109.98651624611558" height="109.98651624611558" width="244.43135999999998" id="SvgjsSvg1788"><g><svg viewBox="0 0 244.43135999999998 109.98651624611558" height="109.98651624611558" width="244.43135999999998"><g transform="matrix(1,0,0,1,0,0)"><svg width="244.43135999999998" viewBox="2.8 -35.9 80.44 36.2" height="109.98651624611558" data-palette-color="url(#0745c716-89ee-42ac-9148-7b23b9c46763)"><path d="M18.9-6.75L18.9-6.75Q18.9-3.5 16.63-1.6 14.35 0.3 10.4 0.3L10.4 0.3Q5.8 0.3 2.95-1.25L2.95-1.25 2.95-5.1Q6.3-3.1 10.15-3.1L10.15-3.1Q12.45-3.1 13.65-4 14.85-4.9 14.85-6.45L14.85-6.45Q14.85-8.25 13.53-9.25 12.2-10.25 9.1-11.5L9.1-11.5Q6.25-12.6 4.53-14.25 2.8-15.9 2.8-18.7L2.8-18.7Q2.8-21.85 5.18-23.73 7.55-25.6 11.1-25.6L11.1-25.6Q15.05-25.6 17.45-24.5L17.45-24.5 17.45-20.75Q15.15-22.15 11.15-22.15L11.15-22.15Q9.15-22.15 7.98-21.23 6.8-20.3 6.8-18.85L6.8-18.85Q6.8-17.95 7.15-17.28 7.5-16.6 8.53-15.95 9.55-15.3 10.03-15.08 10.5-14.85 12.1-14.15L12.1-14.15Q15.3-12.85 17.1-11.2 18.9-9.55 18.9-6.75ZM44.25-17.35L44.25 0 40.3 0 40.3-16.4Q40.3-19.15 38.87-20.65 37.45-22.15 35.15-22.15L35.15-22.15Q32.35-22.15 30.25-20 28.15-17.85 28.15-13.85L28.15-13.85 28.15 0 24.25 0 24.25-35.35 28.15-35.35 28.15-20.95Q30.4-25.7 36.15-25.7L36.15-25.7Q39.8-25.7 42.02-23.45 44.25-21.2 44.25-17.35L44.25-17.35ZM55.39-25.35L55.39 0 51.45 0 51.45-25.35 55.39-25.35ZM55.24-35.15Q55.99-34.4 55.99-33.3 55.99-32.2 55.24-31.48 54.49-30.75 53.39-30.75 52.3-30.75 51.57-31.48 50.84-32.2 50.84-33.3 50.84-34.4 51.57-35.15 52.3-35.9 53.39-35.9 54.49-35.9 55.24-35.15ZM83.24-25.35L74.19 0 69.34 0 60.49-25.35 64.59-25.35 68.09-14.65 71.79-3.1Q72.24-5.25 75.54-14.65L75.54-14.65 79.14-25.35 83.24-25.35Z" opacity="1" transform="matrix(1,0,0,1,0,0)" fill="black" class="wordmark-text-0" id="SvgjsPath1787"></path></svg></g></svg></g></svg></g></svg></g><g></g></svg></g></svg></g></svg></g><path d="M0 62.607L0 1 244.431 1 244.431 62.607 234.513 62.607 234.513 10.919 9.919 10.919 9.919 62.607 0 62.607M0 184.593L0 246.2 244.431 246.2 244.431 184.593 234.513 184.593 234.513 236.281 9.919 236.281 9.919 184.593 0 184.593" fill="black" stroke="transparent"></path></svg></g><defs><mask></mask></defs></svg><rect width="244.43135999999998" height="247.2" fill="black" stroke="none" visibility="hidden"></rect></g></mask></svg><rect width="244.43135999999998" height="247.2" fill="black" stroke="none" visibility="hidden"></rect></g></mask><linearGradient x1="0.054" x2="0.941" y1="0.5" y2="0.5" id="a32ab32f-7dfc-4bd2-8552-f76d49a0eb24"><stop stop-color="#0f3054" offset="0"></stop><stop stop-color="#3b8dcb" offset="0.498"></stop><stop stop-color="#0f3054" offset="1"></stop></linearGradient></svg><rect width="244.43135999999998" height="247.2" fill="none" stroke="none" visibility="hidden"></rect></g></svg></g></svg>